<mxfile host="app.diagrams.net" modified="2023-10-16T01:30:27.764Z" agent="Mozilla/5.0 (Windows NT 10.0; Win64; x64; rv:109.0) Gecko/20100101 Firefox/118.0" etag="DQ5Uvpd4cy5h5mZCJ2xm" version="22.0.4" type="github">
  <diagram id="C5RBs43oDa-KdzZeNtuy" name="Page-1">
    <mxGraphModel dx="880" dy="470" grid="1" gridSize="10" guides="1" tooltips="1" connect="1" arrows="1" fold="1" page="1" pageScale="1" pageWidth="827" pageHeight="1169" math="0" shadow="0">
      <root>
        <mxCell id="WIyWlLk6GJQsqaUBKTNV-0" />
        <mxCell id="WIyWlLk6GJQsqaUBKTNV-1" parent="WIyWlLk6GJQsqaUBKTNV-0" />
        <mxCell id="WNu442u88BAp47JfNm8E-2" value="" style="edgeStyle=orthogonalEdgeStyle;rounded=0;orthogonalLoop=1;jettySize=auto;html=1;" edge="1" parent="WIyWlLk6GJQsqaUBKTNV-1" source="WNu442u88BAp47JfNm8E-0" target="WNu442u88BAp47JfNm8E-1">
          <mxGeometry relative="1" as="geometry" />
        </mxCell>
        <mxCell id="WNu442u88BAp47JfNm8E-0" value="Mulai" style="strokeWidth=2;html=1;shape=mxgraph.flowchart.start_1;whiteSpace=wrap;" vertex="1" parent="WIyWlLk6GJQsqaUBKTNV-1">
          <mxGeometry x="350" y="50" width="100" height="60" as="geometry" />
        </mxCell>
        <mxCell id="WNu442u88BAp47JfNm8E-4" style="edgeStyle=orthogonalEdgeStyle;rounded=0;orthogonalLoop=1;jettySize=auto;html=1;exitX=0.5;exitY=1;exitDx=0;exitDy=0;" edge="1" parent="WIyWlLk6GJQsqaUBKTNV-1" source="WNu442u88BAp47JfNm8E-1" target="WNu442u88BAp47JfNm8E-3">
          <mxGeometry relative="1" as="geometry" />
        </mxCell>
        <mxCell id="WNu442u88BAp47JfNm8E-1" value="Input jari-jari(r)" style="shape=parallelogram;perimeter=parallelogramPerimeter;whiteSpace=wrap;html=1;fixedSize=1;strokeWidth=2;" vertex="1" parent="WIyWlLk6GJQsqaUBKTNV-1">
          <mxGeometry x="340" y="170" width="120" height="60" as="geometry" />
        </mxCell>
        <mxCell id="WNu442u88BAp47JfNm8E-8" value="Tidak" style="edgeStyle=orthogonalEdgeStyle;rounded=0;orthogonalLoop=1;jettySize=auto;html=1;exitX=1;exitY=0.5;exitDx=0;exitDy=0;exitPerimeter=0;entryX=0.5;entryY=0;entryDx=0;entryDy=0;" edge="1" parent="WIyWlLk6GJQsqaUBKTNV-1" source="WNu442u88BAp47JfNm8E-3" target="WNu442u88BAp47JfNm8E-7">
          <mxGeometry relative="1" as="geometry" />
        </mxCell>
        <mxCell id="WNu442u88BAp47JfNm8E-10" value="Ya" style="edgeStyle=orthogonalEdgeStyle;rounded=0;orthogonalLoop=1;jettySize=auto;html=1;exitX=0;exitY=0.5;exitDx=0;exitDy=0;exitPerimeter=0;entryX=0.5;entryY=0;entryDx=0;entryDy=0;" edge="1" parent="WIyWlLk6GJQsqaUBKTNV-1" source="WNu442u88BAp47JfNm8E-3" target="WNu442u88BAp47JfNm8E-9">
          <mxGeometry relative="1" as="geometry" />
        </mxCell>
        <mxCell id="WNu442u88BAp47JfNm8E-3" value="Jari-jari =Kelipatan 7?" style="strokeWidth=2;html=1;shape=mxgraph.flowchart.decision;whiteSpace=wrap;" vertex="1" parent="WIyWlLk6GJQsqaUBKTNV-1">
          <mxGeometry x="330" y="290" width="140" height="100" as="geometry" />
        </mxCell>
        <mxCell id="WNu442u88BAp47JfNm8E-7" value="Phi=3,14" style="rounded=1;whiteSpace=wrap;html=1;absoluteArcSize=1;arcSize=14;strokeWidth=2;" vertex="1" parent="WIyWlLk6GJQsqaUBKTNV-1">
          <mxGeometry x="570" y="390" width="100" height="100" as="geometry" />
        </mxCell>
        <mxCell id="WNu442u88BAp47JfNm8E-18" style="edgeStyle=orthogonalEdgeStyle;rounded=0;orthogonalLoop=1;jettySize=auto;html=1;exitX=0.5;exitY=1;exitDx=0;exitDy=0;entryX=0;entryY=0.5;entryDx=0;entryDy=0;" edge="1" parent="WIyWlLk6GJQsqaUBKTNV-1" source="WNu442u88BAp47JfNm8E-9" target="WNu442u88BAp47JfNm8E-13">
          <mxGeometry relative="1" as="geometry" />
        </mxCell>
        <mxCell id="WNu442u88BAp47JfNm8E-9" value="Phi=22/7" style="rounded=1;whiteSpace=wrap;html=1;absoluteArcSize=1;arcSize=14;strokeWidth=2;" vertex="1" parent="WIyWlLk6GJQsqaUBKTNV-1">
          <mxGeometry x="150" y="390" width="100" height="100" as="geometry" />
        </mxCell>
        <mxCell id="WNu442u88BAp47JfNm8E-13" value="&lt;div&gt;Hitung Luas&lt;/div&gt;&lt;div&gt;&lt;br&gt;&lt;/div&gt;&lt;div&gt;L=Phi x r x r &lt;br&gt;&lt;/div&gt;" style="rounded=1;whiteSpace=wrap;html=1;absoluteArcSize=1;arcSize=14;strokeWidth=2;" vertex="1" parent="WIyWlLk6GJQsqaUBKTNV-1">
          <mxGeometry x="320" y="550" width="160" height="85" as="geometry" />
        </mxCell>
        <mxCell id="WNu442u88BAp47JfNm8E-17" style="edgeStyle=orthogonalEdgeStyle;rounded=0;orthogonalLoop=1;jettySize=auto;html=1;exitX=0.5;exitY=1;exitDx=0;exitDy=0;entryX=1;entryY=0.5;entryDx=0;entryDy=0;" edge="1" parent="WIyWlLk6GJQsqaUBKTNV-1" source="WNu442u88BAp47JfNm8E-7" target="WNu442u88BAp47JfNm8E-13">
          <mxGeometry relative="1" as="geometry" />
        </mxCell>
        <mxCell id="WNu442u88BAp47JfNm8E-19" value="Tampilkan Luas" style="strokeWidth=2;html=1;shape=mxgraph.flowchart.display;whiteSpace=wrap;" vertex="1" parent="WIyWlLk6GJQsqaUBKTNV-1">
          <mxGeometry x="350" y="720" width="100" height="60" as="geometry" />
        </mxCell>
        <mxCell id="WNu442u88BAp47JfNm8E-20" style="edgeStyle=orthogonalEdgeStyle;rounded=0;orthogonalLoop=1;jettySize=auto;html=1;exitX=0.5;exitY=1;exitDx=0;exitDy=0;entryX=0.5;entryY=0;entryDx=0;entryDy=0;entryPerimeter=0;" edge="1" parent="WIyWlLk6GJQsqaUBKTNV-1" source="WNu442u88BAp47JfNm8E-13" target="WNu442u88BAp47JfNm8E-19">
          <mxGeometry relative="1" as="geometry" />
        </mxCell>
        <mxCell id="WNu442u88BAp47JfNm8E-21" value="Selesai" style="strokeWidth=2;html=1;shape=mxgraph.flowchart.start_1;whiteSpace=wrap;" vertex="1" parent="WIyWlLk6GJQsqaUBKTNV-1">
          <mxGeometry x="350" y="820" width="100" height="60" as="geometry" />
        </mxCell>
        <mxCell id="WNu442u88BAp47JfNm8E-22" style="edgeStyle=orthogonalEdgeStyle;rounded=0;orthogonalLoop=1;jettySize=auto;html=1;exitX=0.5;exitY=1;exitDx=0;exitDy=0;exitPerimeter=0;entryX=0.5;entryY=0;entryDx=0;entryDy=0;entryPerimeter=0;" edge="1" parent="WIyWlLk6GJQsqaUBKTNV-1" source="WNu442u88BAp47JfNm8E-19" target="WNu442u88BAp47JfNm8E-21">
          <mxGeometry relative="1" as="geometry" />
        </mxCell>
      </root>
    </mxGraphModel>
  </diagram>
</mxfile>
